<svg width="23" height="23" viewBox="0 0 23 23" fill="none" xmlns="http://www.w3.org/2000/svg">
<path d="M1.79831 3.8H19.5481C21.1558 3.8 22.3167 5.28167 21.8756 6.77267L19.946 13.306C19.6485 14.3093 18.6988 15 17.6184 15H6.93402C5.85251 15 4.90167 14.3082 4.60533 13.306L1.79831 3.8ZM1.79831 3.8L0.969971 1M16.7201 22C17.1842 22 17.6294 21.8156 17.9576 21.4874C18.2857 21.1592 18.4701 20.7141 18.4701 20.25C18.4701 19.7859 18.2857 19.3408 17.9576 19.0126C17.6294 18.6844 17.1842 18.5 16.7201 18.5C16.256 18.5 15.8108 18.6844 15.4827 19.0126C15.1545 19.3408 14.9701 19.7859 14.9701 20.25C14.9701 20.7141 15.1545 21.1592 15.4827 21.4874C15.8108 21.8156 16.256 22 16.7201 22ZM7.38669 22C7.85082 22 8.29595 21.8156 8.62414 21.4874C8.95233 21.1592 9.13671 20.7141 9.13671 20.25C9.13671 19.7859 8.95233 19.3408 8.62414 19.0126C8.29595 18.6844 7.85082 18.5 7.38669 18.5C6.92256 18.5 6.47744 18.6844 6.14924 19.0126C5.82105 19.3408 5.63668 19.7859 5.63668 20.25C5.63668 20.7141 5.82105 21.1592 6.14924 21.4874C6.47744 21.8156 6.92256 22 7.38669 22Z" stroke="white" stroke-width="1.5" stroke-linecap="round" stroke-linejoin="round"/>
</svg>
