<svg width="24" height="30" viewBox="0 0 24 30" fill="none" xmlns="http://www.w3.org/2000/svg">
<path d="M9.25 22L14.75 16.4M9.25 16.4H9.26237M14.7376 22H14.75M12 29C14.9174 29 17.7153 27.82 19.7782 25.7196C21.8411 23.6192 23 20.7704 23 17.8C23 9.4 12 1 12 1C11.4665 4.4818 10.944 6.3508 9.25 9.4C7.6 8.623 7.1875 8 6.5 6.25C3.75 9.4 1 13.6 1 17.8C1 20.7704 2.15893 23.6192 4.22183 25.7196C6.28473 27.82 9.08262 29 12 29Z" stroke="white" stroke-width="1.5" stroke-linecap="round" stroke-linejoin="round"/>
</svg>
