<svg width="29" height="32" viewBox="0 0 29 32" fill="none" xmlns="http://www.w3.org/2000/svg">
<path d="M9.23438 14.3336L12.568 17.6664L19.2344 11" stroke="white" stroke-width="1.5" stroke-linecap="round" stroke-linejoin="round"/>
<path d="M14.2344 31L15.7008 30.3664C18.7754 29.047 21.4305 26.9115 23.3783 24.1911C25.3261 21.4708 26.4925 18.2694 26.7512 14.9336L27.468 5.7336C27.4796 5.3526 27.3602 4.97914 27.1295 4.67567C26.8988 4.3722 26.571 4.15712 26.2008 4.0664L14.2344 1L2.26796 4C1.89787 4.09069 1.57011 4.30565 1.33947 4.60895C1.10882 4.91226 0.989259 5.28553 1.00076 5.6664L1.71756 14.8664C1.97603 18.2023 3.14236 21.4039 5.09022 24.1244C7.03808 26.8449 9.69319 28.9805 12.768 30.3L14.2344 31Z" stroke="white" stroke-width="1.5" stroke-linecap="round" stroke-linejoin="round"/>
</svg>


