<svg width="24" height="32" viewBox="0 0 24 32" fill="none" xmlns="http://www.w3.org/2000/svg">
<path d="M23 19.8638V8.86377C23 8.33334 22.7893 7.82463 22.4142 7.44956C22.0391 7.07448 21.5304 6.86377 21 6.86377C20.4696 6.86377 19.9609 7.07448 19.5858 7.44956C19.2107 7.82463 19 8.33334 19 8.86377V15.8638V4.86377C19 4.33334 18.7893 3.82463 18.4142 3.44956C18.0391 3.07448 17.5304 2.86377 17 2.86377C16.4696 2.86377 15.9609 3.07448 15.5858 3.44956C15.2107 3.82463 15 4.33334 15 4.86377V14.8638V2.86377C15 2.33334 14.7893 1.82463 14.4142 1.44956C14.0391 1.07448 13.5304 0.86377 13 0.86377C12.4696 0.86377 11.9609 1.07448 11.5858 1.44956C11.2107 1.82463 11 2.33334 11 2.86377V14.8638M11 14.9263V5.86377C11 5.33334 10.7893 4.82463 10.4142 4.44956C10.0391 4.07448 9.53043 3.86377 9 3.86377C8.46957 3.86377 7.96086 4.07448 7.58579 4.44956C7.21071 4.82463 7 5.33334 7 5.86377V19.8638" stroke="white" stroke-width="1.5" stroke-linecap="round" stroke-linejoin="round"/>
<path d="M23 19.8633C23 27.2008 19 30.8633 13.5 30.8633C8 30.8633 5.76813 28.3883 4.5 25.3633L1.20813 16.3633C0.791878 15.2352 0.980628 14.1889 1.95 13.6383C2.92 13.0871 4.19438 13.3708 4.71938 14.3683L7 19.8633" stroke="white" stroke-width="1.5" stroke-linecap="round" stroke-linejoin="round"/>
</svg>

