<svg width="51" height="48" viewBox="0 0 51 48" fill="none" xmlns="http://www.w3.org/2000/svg">
<rect x="1" y="1" width="49" height="46" stroke="#DF4145" stroke-width="2"/>
<path fill-rule="evenodd" clip-rule="evenodd" d="M31.5 23.5002C31.5 23.7655 31.3946 24.0198 31.2071 24.2074C31.0196 24.3949 30.7652 24.5002 30.5 24.5002L18 24.5002C17.7348 24.5002 17.4804 24.3949 17.2929 24.2074C17.1054 24.0198 17 23.7655 17 23.5002C17 23.235 17.1054 22.9807 17.2929 22.7931C17.4804 22.6056 17.7348 22.5002 18 22.5002L30.5 22.5002C30.7652 22.5002 31.0196 22.6056 31.2071 22.7931C31.3946 22.9807 31.5 23.235 31.5 23.5002Z" fill="#DF4145"/>
<path fill-rule="evenodd" clip-rule="evenodd" d="M33 23.5002C32.9999 23.7654 32.8945 24.0197 32.707 24.2072L28.207 28.7072C28.0195 28.8948 27.7651 29.0003 27.4999 29.0004C27.2346 29.0005 26.9801 28.8952 26.7925 28.7077C26.6049 28.5202 26.4994 28.2658 26.4993 28.0006C26.4992 27.7353 26.6045 27.4808 26.792 27.2932L30.586 23.5002L26.793 19.7072C26.6055 19.5196 26.5002 19.2651 26.5003 18.9998C26.5004 18.7346 26.6059 18.4802 26.7935 18.2927C26.9811 18.1052 27.2356 17.9999 27.5009 18C27.7661 18.0001 28.0205 18.1056 28.208 18.2932L32.708 22.7932C32.8952 22.9809 33.0002 23.2352 33 23.5002Z" fill="#DF4145"/>
</svg>
