<svg width="23" height="22" viewBox="0 0 23 22" fill="none" xmlns="http://www.w3.org/2000/svg">
<path d="M22.2812 8.91548H21.375V8.87052H11.25V13.2039H17.6079C16.6804 15.7264 14.1879 17.5372 11.25 17.5372C7.52231 17.5372 4.5 14.6268 4.5 11.0372C4.5 7.44757 7.52231 4.53719 11.25 4.53719C12.9707 4.53719 14.5361 5.16227 15.7281 6.18332L18.9101 3.11911C16.9009 1.3159 14.2133 0.203857 11.25 0.203857C5.03719 0.203857 0 5.05448 0 11.0372C0 17.0199 5.03719 21.8705 11.25 21.8705C17.4628 21.8705 22.5 17.0199 22.5 11.0372C22.5 10.3108 22.4224 9.60177 22.2812 8.91548Z" fill="white"/>
<path d="M1.29712 5.99482L4.99331 8.60511C5.99343 6.22069 8.41556 4.53719 11.25 4.53719C12.9707 4.53719 14.5361 5.16227 15.7281 6.18332L18.9101 3.11911C16.9009 1.3159 14.2132 0.203857 11.25 0.203857C6.92887 0.203857 3.18149 2.55307 1.29712 5.99482Z" fill="white"/>
<path d="M11.25 21.8706C14.1559 21.8706 16.7963 20.7997 18.7926 19.0582L15.3107 16.221C14.1433 17.0759 12.7167 17.5384 11.25 17.5372C8.3239 17.5372 5.83934 15.7405 4.90334 13.2332L1.23471 15.955C3.09659 19.4634 6.87771 21.8706 11.25 21.8706Z" fill="white"/>
<path d="M22.2812 8.91532H21.375V8.87036H11.25V13.2037H17.6079C17.1642 14.4043 16.365 15.4533 15.309 16.2213L15.3107 16.2202L18.7926 19.0575C18.5462 19.2731 22.5 16.4537 22.5 11.037C22.5 10.3107 22.4224 9.60161 22.2812 8.91532Z" fill="white"/>
</svg>
