<svg width="1329" height="103" viewBox="0 0 1329 103" fill="none" xmlns="http://www.w3.org/2000/svg">
<path d="M0 39.1755H601L664 102.176L727 39.1755H1329" stroke="#6F6F6F"/>
<path d="M657 45.1755L664 52.1755L671 45.1755" stroke="white" stroke-width="1.5" stroke-linecap="round" stroke-linejoin="round"/>
<path d="M637.744 10.3574C637.668 9.70963 637.357 9.20679 636.811 8.84883C636.266 8.49088 635.597 8.3119 634.804 8.3119C634.224 8.3119 633.717 8.40565 633.283 8.59315C632.852 8.78065 632.516 9.03846 632.273 9.36659C632.034 9.69471 631.915 10.0676 631.915 10.4852C631.915 10.8346 631.998 11.1351 632.164 11.3865C632.335 11.6336 632.552 11.8403 632.816 12.0065C633.08 12.1684 633.357 12.3027 633.647 12.4092C633.937 12.5115 634.203 12.5946 634.446 12.6585L635.776 13.0164C636.116 13.1059 636.496 13.2295 636.913 13.3872C637.335 13.5449 637.738 13.7601 638.121 14.0328C638.509 14.3012 638.829 14.6464 639.08 15.0683C639.332 15.4902 639.457 16.0079 639.457 16.6216C639.457 17.3289 639.272 17.9682 638.901 18.5392C638.535 19.1102 637.998 19.564 637.29 19.9007C636.587 20.2373 635.733 20.4057 634.727 20.4057C633.79 20.4057 632.978 20.2544 632.292 19.9518C631.61 19.6493 631.073 19.2274 630.681 18.6862C630.293 18.145 630.074 17.5164 630.023 16.8005H631.659C631.702 17.2949 631.868 17.7039 632.158 18.0278C632.452 18.3474 632.822 18.586 633.27 18.7437C633.722 18.8971 634.207 18.9738 634.727 18.9738C635.332 18.9738 635.876 18.8758 636.357 18.6798C636.839 18.4795 637.22 18.2025 637.501 17.8488C637.783 17.4909 637.923 17.0733 637.923 16.596C637.923 16.1613 637.802 15.8076 637.559 15.5349C637.316 15.2622 636.996 15.0406 636.6 14.8701C636.204 14.6997 635.776 14.5505 635.315 14.4227L633.705 13.9625C632.682 13.6684 631.872 13.2487 631.276 12.7032C630.679 12.1578 630.381 11.444 630.381 10.5619C630.381 9.82895 630.579 9.18974 630.975 8.64429C631.376 8.09457 631.913 7.66843 632.586 7.36588C633.263 7.05906 634.02 6.90565 634.855 6.90565C635.699 6.90565 636.449 7.05693 637.105 7.35949C637.761 7.65778 638.281 8.06687 638.665 8.58676C639.053 9.10664 639.257 9.69684 639.278 10.3574H637.744ZM652.598 11.1755H651.013C650.919 10.7196 650.755 10.319 650.52 9.97383C650.29 9.62866 650.009 9.33889 649.677 9.10451C649.349 8.86588 648.984 8.6869 648.584 8.56758C648.183 8.44826 647.765 8.3886 647.331 8.3886C646.538 8.3886 645.82 8.58889 645.177 8.98946C644.537 9.39003 644.028 9.98022 643.649 10.7601C643.274 11.5399 643.086 12.4966 643.086 13.6301C643.086 14.7636 643.274 15.7203 643.649 16.5001C644.028 17.2799 644.537 17.8701 645.177 18.2707C645.82 18.6713 646.538 18.8716 647.331 18.8716C647.765 18.8716 648.183 18.8119 648.584 18.6926C648.984 18.5733 649.349 18.3964 649.677 18.162C650.009 17.9234 650.29 17.6315 650.52 17.2863C650.755 16.9369 650.919 16.5363 651.013 16.0846H652.598C652.479 16.7537 652.261 17.3524 651.946 17.8808C651.631 18.4092 651.238 18.8588 650.77 19.2295C650.301 19.596 649.775 19.8751 649.191 20.0669C648.611 20.2586 647.991 20.3545 647.331 20.3545C646.214 20.3545 645.221 20.0818 644.352 19.5363C643.483 18.9909 642.799 18.2153 642.3 17.2096C641.802 16.2039 641.552 15.0108 641.552 13.6301C641.552 12.2494 641.802 11.0562 642.3 10.0505C642.799 9.04486 643.483 8.26929 644.352 7.72383C645.221 7.17838 646.214 6.90565 647.331 6.90565C647.991 6.90565 648.611 7.00153 649.191 7.19329C649.775 7.38505 650.301 7.6663 650.77 8.03704C651.238 8.40352 651.631 8.85096 651.946 9.37937C652.261 9.90352 652.479 10.5022 652.598 11.1755ZM655.159 20.1755V7.08463H659.583C660.605 7.08463 661.445 7.25934 662.101 7.60878C662.757 7.95395 663.243 8.42909 663.559 9.0342C663.874 9.63932 664.032 10.3275 664.032 11.0988C664.032 11.8701 663.874 12.5541 663.559 13.1507C663.243 13.7473 662.76 14.216 662.108 14.5569C661.456 14.8936 660.623 15.0619 659.608 15.0619H656.029V13.6301H659.557C660.256 13.6301 660.819 13.5278 661.245 13.3233C661.675 13.1187 661.986 12.8289 662.178 12.4539C662.374 12.0747 662.472 11.623 662.472 11.0988C662.472 10.5747 662.374 10.1166 662.178 9.72454C661.982 9.3325 661.669 9.02994 661.238 8.81687C660.808 8.59954 660.239 8.49088 659.532 8.49088H656.745V20.1755H655.159ZM661.321 14.2949L664.543 20.1755H662.702L659.532 14.2949H661.321ZM677.719 13.6301C677.719 15.0108 677.469 16.2039 676.971 17.2096C676.472 18.2153 675.788 18.9909 674.919 19.5363C674.05 20.0818 673.057 20.3545 671.94 20.3545C670.824 20.3545 669.831 20.0818 668.961 19.5363C668.092 18.9909 667.408 18.2153 666.91 17.2096C666.411 16.2039 666.162 15.0108 666.162 13.6301C666.162 12.2494 666.411 11.0562 666.91 10.0505C667.408 9.04486 668.092 8.26929 668.961 7.72383C669.831 7.17838 670.824 6.90565 671.94 6.90565C673.057 6.90565 674.05 7.17838 674.919 7.72383C675.788 8.26929 676.472 9.04486 676.971 10.0505C677.469 11.0562 677.719 12.2494 677.719 13.6301ZM676.184 13.6301C676.184 12.4966 675.995 11.5399 675.616 10.7601C675.241 9.98022 674.731 9.39003 674.088 8.98946C673.449 8.58889 672.733 8.3886 671.94 8.3886C671.148 8.3886 670.43 8.58889 669.786 8.98946C669.147 9.39003 668.638 9.98022 668.258 10.7601C667.883 11.5399 667.696 12.4966 667.696 13.6301C667.696 14.7636 667.883 15.7203 668.258 16.5001C668.638 17.2799 669.147 17.8701 669.786 18.2707C670.43 18.6713 671.148 18.8716 671.94 18.8716C672.733 18.8716 673.449 18.6713 674.088 18.2707C674.731 17.8701 675.241 17.2799 675.616 16.5001C675.995 15.7203 676.184 14.7636 676.184 13.6301ZM680.384 20.1755V7.08463H681.969V18.7693H688.055V20.1755H680.384ZM690.509 20.1755V7.08463H692.094V18.7693H698.18V20.1755H690.509Z" fill="#CDCDCD"/>
</svg>
