<svg width="25" height="25" viewBox="0 0 25 25" fill="none" xmlns="http://www.w3.org/2000/svg">
<path d="M20.9491 20.6174H17.3931V15.2546C17.3931 13.9758 17.3694 12.3296 15.5436 12.3296C13.6915 12.3296 13.4081 13.7229 13.4081 15.1615V20.617H9.85213V9.58904H13.2658V11.0961H13.3137C13.6553 10.5336 14.149 10.0709 14.7421 9.75715C15.3353 9.44344 16.0057 9.29052 16.6819 9.31468C20.2861 9.31468 20.9506 11.5976 20.9506 14.5676L20.9491 20.6174ZM5.83963 8.08167C4.69991 8.08185 3.77581 7.19225 3.77562 6.09475C3.77544 4.99724 4.69916 4.10737 5.83887 4.10719C6.97859 4.10692 7.90269 4.99652 7.90287 6.09402C7.90297 6.62107 7.68566 7.12657 7.29872 7.49932C6.91179 7.87207 6.38694 8.08155 5.83963 8.08167ZM7.61769 20.6175H4.05791V9.58904H7.61759L7.61769 20.6175ZM22.7219 0.926975H2.27103C1.30447 0.916503 0.511813 1.66211 0.5 2.59287V22.3685C0.511437 23.2997 1.304 24.046 2.27094 24.0363H22.7219C23.6909 24.0478 24.4866 23.3015 24.5 22.3685V2.59134C24.4862 1.65877 23.6905 0.913253 22.7219 0.92544" fill="white"/>
</svg>
