<svg width="144" height="25" viewBox="0 0 144 25" fill="none" xmlns="http://www.w3.org/2000/svg">
<path d="M34.944 24V6.48H38.208L43.32 21.048C43.288 20.584 43.248 20.032 43.2 19.392C43.152 18.752 43.112 18.088 43.08 17.4C43.064 16.712 43.056 16.088 43.056 15.528V6.48H45.456V24H42.192L37.104 9.432C37.136 9.848 37.168 10.368 37.2 10.992C37.248 11.616 37.28 12.264 37.296 12.936C37.328 13.608 37.344 14.232 37.344 14.808V24H34.944Z" fill="white"/>
<path d="M54.1106 24.24C53.0386 24.24 52.0946 24.032 51.2786 23.616C50.4786 23.184 49.8626 22.584 49.4306 21.816C48.9986 21.048 48.7826 20.152 48.7826 19.128V15.672C48.7826 14.632 48.9986 13.736 49.4306 12.984C49.8626 12.216 50.4786 11.624 51.2786 11.208C52.0946 10.776 53.0386 10.56 54.1106 10.56C55.1986 10.56 56.1426 10.776 56.9426 11.208C57.7426 11.624 58.3586 12.216 58.7906 12.984C59.2226 13.736 59.4386 14.632 59.4386 15.672V18.024H51.2786V19.128C51.2786 20.104 51.5186 20.848 51.9986 21.36C52.4946 21.872 53.2066 22.128 54.1346 22.128C54.8866 22.128 55.4946 22 55.9586 21.744C56.4226 21.472 56.7106 21.08 56.8226 20.568H59.3906C59.1986 21.688 58.6226 22.584 57.6626 23.256C56.7026 23.912 55.5186 24.24 54.1106 24.24ZM56.9426 16.464V15.648C56.9426 14.688 56.7026 13.944 56.2226 13.416C55.7426 12.888 55.0386 12.624 54.1106 12.624C53.1986 12.624 52.4946 12.888 51.9986 13.416C51.5186 13.944 51.2786 14.696 51.2786 15.672V16.272L57.1346 16.248L56.9426 16.464Z" fill="white"/>
<path d="M61.8533 24L66.4853 17.184L62.1413 10.8H65.1173L67.4453 14.448C67.5573 14.64 67.6693 14.848 67.7812 15.072C67.8932 15.28 67.9813 15.456 68.0452 15.6C68.0933 15.456 68.1733 15.28 68.2853 15.072C68.3973 14.848 68.5093 14.64 68.6213 14.448L70.9493 10.8H73.9253L69.5813 17.208L74.1893 24H71.2133L68.6453 20.04C68.5333 19.848 68.4212 19.632 68.3092 19.392C68.1973 19.152 68.1092 18.96 68.0452 18.816C67.9813 18.96 67.8853 19.152 67.7573 19.392C67.6453 19.632 67.5252 19.848 67.3973 20.04L64.8053 24H61.8533Z" fill="white"/>
<path d="M80.6119 24.24C79.2359 24.24 78.1479 23.888 77.3479 23.184C76.5639 22.464 76.1719 21.488 76.1719 20.256C76.1719 19.008 76.5879 18.032 77.4199 17.328C78.2679 16.608 79.4279 16.248 80.8999 16.248H84.5719V15.024C84.5719 14.304 84.3479 13.744 83.8999 13.344C83.4519 12.944 82.8199 12.744 82.0039 12.744C81.2839 12.744 80.6839 12.904 80.2039 13.224C79.7239 13.528 79.4439 13.936 79.3639 14.448H76.8199C76.9639 13.264 77.5079 12.32 78.4519 11.616C79.4119 10.912 80.6199 10.56 82.0759 10.56C83.6439 10.56 84.8839 10.96 85.7959 11.76C86.7079 12.544 87.1639 13.616 87.1639 14.976V24H84.6439V21.576H84.2119L84.6439 21.096C84.6439 22.056 84.2759 22.824 83.5399 23.4C82.8039 23.96 81.8279 24.24 80.6119 24.24ZM81.3799 22.248C82.3079 22.248 83.0679 22.016 83.6599 21.552C84.2679 21.072 84.5719 20.464 84.5719 19.728V18H80.9479C80.2759 18 79.7399 18.184 79.3399 18.552C78.9559 18.92 78.7639 19.424 78.7639 20.064C78.7639 20.736 78.9959 21.272 79.4599 21.672C79.9239 22.056 80.5639 22.248 81.3799 22.248Z" fill="white"/>
<path d="M95.9385 24.24C94.8505 24.24 93.8985 24.04 93.0825 23.64C92.2825 23.224 91.6585 22.632 91.2105 21.864C90.7785 21.08 90.5625 20.168 90.5625 19.128V11.352C90.5625 10.296 90.7785 9.384 91.2105 8.616C91.6585 7.848 92.2825 7.264 93.0825 6.864C93.8985 6.448 94.8505 6.24 95.9385 6.24C97.0265 6.24 97.9705 6.448 98.7705 6.864C99.5705 7.28 100.187 7.872 100.618 8.64C101.066 9.392 101.291 10.296 101.291 11.352H98.6985C98.6985 10.44 98.4585 9.744 97.9785 9.264C97.4985 8.784 96.8185 8.544 95.9385 8.544C95.0585 8.544 94.3705 8.784 93.8745 9.264C93.3945 9.744 93.1545 10.432 93.1545 11.328V19.128C93.1545 20.024 93.3945 20.72 93.8745 21.216C94.3705 21.712 95.0585 21.96 95.9385 21.96C96.8185 21.96 97.4985 21.712 97.9785 21.216C98.4585 20.72 98.6985 20.024 98.6985 19.128V17.16H95.4345V14.88H101.291V19.128C101.291 20.168 101.066 21.072 100.618 21.84C100.187 22.608 99.5705 23.2 98.7705 23.616C97.9705 24.032 97.0265 24.24 95.9385 24.24Z" fill="white"/>
<path d="M109.753 24.24C108.681 24.24 107.737 24.032 106.921 23.616C106.121 23.184 105.505 22.584 105.073 21.816C104.641 21.048 104.425 20.152 104.425 19.128V15.672C104.425 14.632 104.641 13.736 105.073 12.984C105.505 12.216 106.121 11.624 106.921 11.208C107.737 10.776 108.681 10.56 109.753 10.56C110.841 10.56 111.785 10.776 112.585 11.208C113.385 11.624 114.001 12.216 114.433 12.984C114.865 13.736 115.081 14.632 115.081 15.672V18.024H106.921V19.128C106.921 20.104 107.161 20.848 107.641 21.36C108.137 21.872 108.849 22.128 109.777 22.128C110.529 22.128 111.137 22 111.601 21.744C112.065 21.472 112.353 21.08 112.465 20.568H115.033C114.841 21.688 114.265 22.584 113.305 23.256C112.345 23.912 111.161 24.24 109.753 24.24ZM112.585 16.464V15.648C112.585 14.688 112.345 13.944 111.865 13.416C111.385 12.888 110.681 12.624 109.753 12.624C108.841 12.624 108.137 12.888 107.641 13.416C107.161 13.944 106.921 14.696 106.921 15.672V16.272L112.777 16.248L112.585 16.464Z" fill="white"/>
<path d="M122.344 24.24C120.968 24.24 119.88 23.888 119.08 23.184C118.296 22.464 117.904 21.488 117.904 20.256C117.904 19.008 118.32 18.032 119.152 17.328C120 16.608 121.16 16.248 122.632 16.248H126.304V15.024C126.304 14.304 126.08 13.744 125.632 13.344C125.184 12.944 124.552 12.744 123.736 12.744C123.016 12.744 122.416 12.904 121.936 13.224C121.456 13.528 121.176 13.936 121.096 14.448H118.552C118.696 13.264 119.24 12.32 120.184 11.616C121.144 10.912 122.352 10.56 123.808 10.56C125.376 10.56 126.616 10.96 127.528 11.76C128.44 12.544 128.896 13.616 128.896 14.976V24H126.376V21.576H125.944L126.376 21.096C126.376 22.056 126.008 22.824 125.272 23.4C124.536 23.96 123.56 24.24 122.344 24.24ZM123.112 22.248C124.04 22.248 124.8 22.016 125.392 21.552C126 21.072 126.304 20.464 126.304 19.728V18H122.68C122.008 18 121.472 18.184 121.072 18.552C120.688 18.92 120.496 19.424 120.496 20.064C120.496 20.736 120.728 21.272 121.192 21.672C121.656 22.056 122.296 22.248 123.112 22.248Z" fill="white"/>
<path d="M132.822 24V10.8H135.318V13.32H135.942L135.15 14.88C135.15 13.456 135.462 12.384 136.086 11.664C136.71 10.928 137.638 10.56 138.87 10.56C140.278 10.56 141.39 11 142.206 11.88C143.038 12.744 143.454 13.936 143.454 15.456V16.344H140.79V15.672C140.79 14.728 140.55 14.008 140.07 13.512C139.606 13 138.95 12.744 138.102 12.744C137.254 12.744 136.59 13 136.11 13.512C135.646 14.024 135.414 14.744 135.414 15.672V24H132.822Z" fill="white"/>
<path fill-rule="evenodd" clip-rule="evenodd" d="M14.8865 1.10349C15.1981 -0.361687 17.2278 -0.37044 17.553 1.09299L17.5683 1.16301L17.5989 1.2978C17.9735 2.93977 19.2659 4.19489 20.8852 4.48372C22.3716 4.7498 22.3716 6.94494 20.8852 7.21101C20.0897 7.35395 19.353 7.73496 18.7673 8.30635C18.1815 8.87773 17.7727 9.61409 17.5921 10.4232L17.553 10.6018C17.2295 12.0652 15.1981 12.0564 14.8848 10.5912L14.8525 10.4372C14.68 9.62475 14.2759 8.88359 13.6917 8.30833C13.1076 7.73307 12.37 7.34983 11.5731 7.20751C10.09 6.94319 10.09 4.75155 11.5731 4.48722C12.3672 4.3455 13.1024 3.96455 13.6857 3.39269C14.2689 2.82082 14.6738 2.08379 14.8491 1.27504L14.8729 1.16301L14.8865 1.10349ZM11.253 9.09281C10.8335 9.02036 10.431 8.86777 10.0662 8.64293H5.7805C4.5235 8.64275 3.31057 9.11906 2.37379 9.98073C1.43701 10.8424 0.842151 12.0289 0.703043 13.3133L0.0219631 19.6291C-0.0738688 20.5448 0.145861 21.466 0.64286 22.2322C1.13986 22.9984 1.88261 23.561 2.74169 23.822C3.60076 24.083 4.52167 24.0259 5.34395 23.6605C6.16622 23.2951 6.83772 22.6446 7.24142 21.8225L7.84417 20.5849H12.8263L13.4273 21.8225C13.8283 22.6493 14.4996 23.3046 15.3235 23.6733C16.1475 24.042 17.0714 24.1007 17.9332 23.8389C18.795 23.5772 19.5396 23.0119 20.0365 22.2421C20.5333 21.4723 20.7506 20.5472 20.6502 19.6291L19.9691 13.3133C19.8908 12.5881 19.6664 11.8875 19.3102 11.2564C18.3873 14.4809 13.79 14.3829 13.0698 10.9991L13.0357 10.8451C12.9414 10.4046 12.7219 10.0029 12.4051 9.69089C12.0883 9.37891 11.6885 9.17074 11.2564 9.09281H11.253ZM7.0439 12.9072C7.0439 12.617 6.93178 12.3387 6.73221 12.1335C6.53263 11.9284 6.26195 11.8131 5.97971 11.8131C5.69747 11.8131 5.42679 11.9284 5.22722 12.1335C5.02764 12.3387 4.91553 12.617 4.91553 12.9072V13.8034H4.04374C3.7615 13.8034 3.49082 13.9187 3.29125 14.1239C3.09167 14.3291 2.97955 14.6073 2.97955 14.8975C2.97955 15.1877 3.09167 15.4659 3.29125 15.6711C3.49082 15.8763 3.7615 15.9916 4.04374 15.9916H4.91553V16.8878C4.91553 17.178 5.02764 17.4563 5.22722 17.6615C5.42679 17.8666 5.69747 17.9819 5.97971 17.9819C6.26195 17.9819 6.53263 17.8666 6.73221 17.6615C6.93178 17.4563 7.0439 17.178 7.0439 16.8878V15.9916H7.91568C8.19792 15.9916 8.46861 15.8763 8.66818 15.6711C8.86775 15.4659 8.97987 15.1877 8.97987 14.8975C8.97987 14.6073 8.86775 14.3291 8.66818 14.1239C8.46861 13.9187 8.19792 13.8034 7.91568 13.8034H7.0439V12.9072ZM15.1317 15.9636C15.1398 16.1087 15.119 16.254 15.0706 16.3906C15.0221 16.5271 14.947 16.6521 14.8499 16.7578C14.7529 16.8635 14.6358 16.9477 14.506 17.0053C14.3761 17.0628 14.2362 17.0925 14.0948 17.0925C13.9534 17.0925 13.8135 17.0628 13.6836 17.0053C13.5538 16.9477 13.4367 16.8635 13.3396 16.7578C13.2425 16.6521 13.1675 16.5271 13.119 16.3906C13.0706 16.254 13.0497 16.1087 13.0578 15.9636C13.073 15.6914 13.1889 15.4355 13.3817 15.2483C13.5745 15.0611 13.8296 14.9569 14.0948 14.9569C14.36 14.9569 14.6151 15.0611 14.8079 15.2483C15.0007 15.4355 15.1166 15.6914 15.1317 15.9636Z" fill="#DF4145"/>
</svg>
