<svg width="144" height="25" viewBox="0 0 144 25" fill="none" xmlns="http://www.w3.org/2000/svg">
<path d="M34.944 24.0002V6.48023H38.208L43.32 21.0482C43.288 20.5842 43.248 20.0322 43.2 19.3922C43.152 18.7522 43.112 18.0882 43.08 17.4002C43.064 16.7122 43.056 16.0882 43.056 15.5282V6.48023H45.456V24.0002H42.192L37.104 9.43223C37.136 9.84823 37.168 10.3682 37.2 10.9922C37.248 11.6162 37.28 12.2642 37.296 12.9362C37.328 13.6082 37.344 14.2322 37.344 14.8082V24.0002H34.944Z" fill="white"/>
<path d="M54.1106 24.2402C53.0386 24.2402 52.0946 24.0322 51.2786 23.6162C50.4786 23.1842 49.8626 22.5842 49.4306 21.8162C48.9986 21.0482 48.7826 20.1522 48.7826 19.1282V15.6722C48.7826 14.6322 48.9986 13.7362 49.4306 12.9842C49.8626 12.2162 50.4786 11.6242 51.2786 11.2082C52.0946 10.7762 53.0386 10.5602 54.1106 10.5602C55.1986 10.5602 56.1426 10.7762 56.9426 11.2082C57.7426 11.6242 58.3586 12.2162 58.7906 12.9842C59.2226 13.7362 59.4386 14.6322 59.4386 15.6722V18.0242H51.2786V19.1282C51.2786 20.1042 51.5186 20.8482 51.9986 21.3602C52.4946 21.8722 53.2066 22.1282 54.1346 22.1282C54.8866 22.1282 55.4946 22.0002 55.9586 21.7442C56.4226 21.4722 56.7106 21.0802 56.8226 20.5682H59.3906C59.1986 21.6882 58.6226 22.5842 57.6626 23.2562C56.7026 23.9122 55.5186 24.2402 54.1106 24.2402ZM56.9426 16.4642V15.6482C56.9426 14.6882 56.7026 13.9442 56.2226 13.4162C55.7426 12.8882 55.0386 12.6242 54.1106 12.6242C53.1986 12.6242 52.4946 12.8882 51.9986 13.4162C51.5186 13.9442 51.2786 14.6962 51.2786 15.6722V16.2722L57.1346 16.2482L56.9426 16.4642Z" fill="white"/>
<path d="M61.8533 24.0002L66.4853 17.1842L62.1413 10.8002H65.1173L67.4453 14.4482C67.5573 14.6402 67.6693 14.8482 67.7812 15.0722C67.8932 15.2802 67.9813 15.4562 68.0452 15.6002C68.0933 15.4562 68.1733 15.2802 68.2853 15.0722C68.3973 14.8482 68.5093 14.6402 68.6213 14.4482L70.9493 10.8002H73.9253L69.5813 17.2082L74.1893 24.0002H71.2133L68.6453 20.0402C68.5333 19.8482 68.4212 19.6322 68.3092 19.3922C68.1973 19.1522 68.1092 18.9602 68.0452 18.8162C67.9813 18.9602 67.8853 19.1522 67.7573 19.3922C67.6453 19.6322 67.5252 19.8482 67.3973 20.0402L64.8053 24.0002H61.8533Z" fill="white"/>
<path d="M80.6119 24.2402C79.2359 24.2402 78.1479 23.8882 77.3479 23.1842C76.5639 22.4642 76.1719 21.4882 76.1719 20.2562C76.1719 19.0082 76.5879 18.0322 77.4199 17.3282C78.2679 16.6082 79.4279 16.2482 80.8999 16.2482H84.5719V15.0242C84.5719 14.3042 84.3479 13.7442 83.8999 13.3442C83.4519 12.9442 82.8199 12.7442 82.0039 12.7442C81.2839 12.7442 80.6839 12.9042 80.2039 13.2242C79.7239 13.5282 79.4439 13.9362 79.3639 14.4482H76.8199C76.9639 13.2642 77.5079 12.3202 78.4519 11.6162C79.4119 10.9122 80.6199 10.5602 82.0759 10.5602C83.6439 10.5602 84.8839 10.9602 85.7959 11.7602C86.7079 12.5442 87.1639 13.6162 87.1639 14.9762V24.0002H84.6439V21.5762H84.2119L84.6439 21.0962C84.6439 22.0562 84.2759 22.8242 83.5399 23.4002C82.8039 23.9602 81.8279 24.2402 80.6119 24.2402ZM81.3799 22.2482C82.3079 22.2482 83.0679 22.0162 83.6599 21.5522C84.2679 21.0722 84.5719 20.4642 84.5719 19.7282V18.0002H80.9479C80.2759 18.0002 79.7399 18.1842 79.3399 18.5522C78.9559 18.9202 78.7639 19.4242 78.7639 20.0642C78.7639 20.7362 78.9959 21.2722 79.4599 21.6722C79.9239 22.0562 80.5639 22.2482 81.3799 22.2482Z" fill="white"/>
<path d="M95.9385 24.2402C94.8505 24.2402 93.8985 24.0402 93.0825 23.6402C92.2825 23.2242 91.6585 22.6322 91.2105 21.8642C90.7785 21.0802 90.5625 20.1682 90.5625 19.1282V11.3522C90.5625 10.2962 90.7785 9.38423 91.2105 8.61623C91.6585 7.84823 92.2825 7.26423 93.0825 6.86423C93.8985 6.44823 94.8505 6.24023 95.9385 6.24023C97.0265 6.24023 97.9705 6.44823 98.7705 6.86423C99.5705 7.28023 100.187 7.87223 100.618 8.64023C101.066 9.39223 101.291 10.2962 101.291 11.3522H98.6985C98.6985 10.4402 98.4585 9.74423 97.9785 9.26423C97.4985 8.78423 96.8185 8.54423 95.9385 8.54423C95.0585 8.54423 94.3705 8.78423 93.8745 9.26423C93.3945 9.74423 93.1545 10.4322 93.1545 11.3282V19.1282C93.1545 20.0242 93.3945 20.7202 93.8745 21.2162C94.3705 21.7122 95.0585 21.9602 95.9385 21.9602C96.8185 21.9602 97.4985 21.7122 97.9785 21.2162C98.4585 20.7202 98.6985 20.0242 98.6985 19.1282V17.1602H95.4345V14.8802H101.291V19.1282C101.291 20.1682 101.066 21.0722 100.618 21.8402C100.187 22.6082 99.5705 23.2002 98.7705 23.6162C97.9705 24.0322 97.0265 24.2402 95.9385 24.2402Z" fill="white"/>
<path d="M109.753 24.2402C108.681 24.2402 107.737 24.0322 106.921 23.6162C106.121 23.1842 105.505 22.5842 105.073 21.8162C104.641 21.0482 104.425 20.1522 104.425 19.1282V15.6722C104.425 14.6322 104.641 13.7362 105.073 12.9842C105.505 12.2162 106.121 11.6242 106.921 11.2082C107.737 10.7762 108.681 10.5602 109.753 10.5602C110.841 10.5602 111.785 10.7762 112.585 11.2082C113.385 11.6242 114.001 12.2162 114.433 12.9842C114.865 13.7362 115.081 14.6322 115.081 15.6722V18.0242H106.921V19.1282C106.921 20.1042 107.161 20.8482 107.641 21.3602C108.137 21.8722 108.849 22.1282 109.777 22.1282C110.529 22.1282 111.137 22.0002 111.601 21.7442C112.065 21.4722 112.353 21.0802 112.465 20.5682H115.033C114.841 21.6882 114.265 22.5842 113.305 23.2562C112.345 23.9122 111.161 24.2402 109.753 24.2402ZM112.585 16.4642V15.6482C112.585 14.6882 112.345 13.9442 111.865 13.4162C111.385 12.8882 110.681 12.6242 109.753 12.6242C108.841 12.6242 108.137 12.8882 107.641 13.4162C107.161 13.9442 106.921 14.6962 106.921 15.6722V16.2722L112.777 16.2482L112.585 16.4642Z" fill="white"/>
<path d="M122.344 24.2402C120.968 24.2402 119.88 23.8882 119.08 23.1842C118.296 22.4642 117.904 21.4882 117.904 20.2562C117.904 19.0082 118.32 18.0322 119.152 17.3282C120 16.6082 121.16 16.2482 122.632 16.2482H126.304V15.0242C126.304 14.3042 126.08 13.7442 125.632 13.3442C125.184 12.9442 124.552 12.7442 123.736 12.7442C123.016 12.7442 122.416 12.9042 121.936 13.2242C121.456 13.5282 121.176 13.9362 121.096 14.4482H118.552C118.696 13.2642 119.24 12.3202 120.184 11.6162C121.144 10.9122 122.352 10.5602 123.808 10.5602C125.376 10.5602 126.616 10.9602 127.528 11.7602C128.44 12.5442 128.896 13.6162 128.896 14.9762V24.0002H126.376V21.5762H125.944L126.376 21.0962C126.376 22.0562 126.008 22.8242 125.272 23.4002C124.536 23.9602 123.56 24.2402 122.344 24.2402ZM123.112 22.2482C124.04 22.2482 124.8 22.0162 125.392 21.5522C126 21.0722 126.304 20.4642 126.304 19.7282V18.0002H122.68C122.008 18.0002 121.472 18.1842 121.072 18.5522C120.688 18.9202 120.496 19.4242 120.496 20.0642C120.496 20.7362 120.728 21.2722 121.192 21.6722C121.656 22.0562 122.296 22.2482 123.112 22.2482Z" fill="white"/>
<path d="M132.822 24.0002V10.8002H135.318V13.3202H135.942L135.15 14.8802C135.15 13.4562 135.462 12.3842 136.086 11.6642C136.71 10.9282 137.638 10.5602 138.87 10.5602C140.278 10.5602 141.39 11.0002 142.206 11.8802C143.038 12.7442 143.454 13.9362 143.454 15.4562V16.3442H140.79V15.6722C140.79 14.7282 140.55 14.0082 140.07 13.5122C139.606 13.0002 138.95 12.7442 138.102 12.7442C137.254 12.7442 136.59 13.0002 136.11 13.5122C135.646 14.0242 135.414 14.7442 135.414 15.6722V24.0002H132.822Z" fill="white"/>
<path fill-rule="evenodd" clip-rule="evenodd" d="M14.8865 1.10349C15.1981 -0.361687 17.2278 -0.37044 17.553 1.09299L17.5683 1.16301L17.5989 1.2978C17.9735 2.93977 19.2659 4.19489 20.8852 4.48372C22.3716 4.7498 22.3716 6.94494 20.8852 7.21101C20.0897 7.35395 19.353 7.73496 18.7673 8.30635C18.1815 8.87773 17.7727 9.61409 17.5921 10.4232L17.553 10.6018C17.2295 12.0652 15.1981 12.0564 14.8848 10.5912L14.8525 10.4372C14.68 9.62475 14.2759 8.88359 13.6917 8.30833C13.1076 7.73307 12.37 7.34983 11.5731 7.20751C10.09 6.94319 10.09 4.75155 11.5731 4.48722C12.3672 4.3455 13.1024 3.96455 13.6857 3.39269C14.2689 2.82082 14.6738 2.08379 14.8491 1.27504L14.8729 1.16301L14.8865 1.10349ZM11.253 9.09281C10.8335 9.02036 10.431 8.86777 10.0662 8.64293H5.7805C4.5235 8.64275 3.31057 9.11906 2.37379 9.98073C1.43701 10.8424 0.842151 12.0289 0.703043 13.3133L0.0219631 19.6291C-0.0738688 20.5448 0.145861 21.466 0.64286 22.2322C1.13986 22.9984 1.88261 23.561 2.74169 23.822C3.60076 24.083 4.52167 24.0259 5.34395 23.6605C6.16622 23.2951 6.83772 22.6446 7.24142 21.8225L7.84417 20.5849H12.8263L13.4273 21.8225C13.8283 22.6493 14.4996 23.3046 15.3235 23.6733C16.1475 24.042 17.0714 24.1007 17.9332 23.8389C18.795 23.5772 19.5396 23.0119 20.0365 22.2421C20.5333 21.4723 20.7506 20.5472 20.6502 19.6291L19.9691 13.3133C19.8908 12.5881 19.6664 11.8875 19.3102 11.2564C18.3873 14.4809 13.79 14.3829 13.0698 10.9991L13.0357 10.8451C12.9414 10.4046 12.7219 10.0029 12.4051 9.69089C12.0883 9.37891 11.6885 9.17074 11.2564 9.09281H11.253ZM7.0439 12.9072C7.0439 12.617 6.93178 12.3387 6.73221 12.1335C6.53263 11.9284 6.26195 11.8131 5.97971 11.8131C5.69747 11.8131 5.42679 11.9284 5.22722 12.1335C5.02764 12.3387 4.91553 12.617 4.91553 12.9072V13.8034H4.04374C3.7615 13.8034 3.49082 13.9187 3.29125 14.1239C3.09167 14.3291 2.97955 14.6073 2.97955 14.8975C2.97955 15.1877 3.09167 15.4659 3.29125 15.6711C3.49082 15.8763 3.7615 15.9916 4.04374 15.9916H4.91553V16.8878C4.91553 17.178 5.02764 17.4563 5.22722 17.6615C5.42679 17.8666 5.69747 17.9819 5.97971 17.9819C6.26195 17.9819 6.53263 17.8666 6.73221 17.6615C6.93178 17.4563 7.0439 17.178 7.0439 16.8878V15.9916H7.91568C8.19792 15.9916 8.46861 15.8763 8.66818 15.6711C8.86775 15.4659 8.97987 15.1877 8.97987 14.8975C8.97987 14.6073 8.86775 14.3291 8.66818 14.1239C8.46861 13.9187 8.19792 13.8034 7.91568 13.8034H7.0439V12.9072ZM15.1317 15.9636C15.1398 16.1087 15.119 16.254 15.0706 16.3906C15.0221 16.5271 14.947 16.6521 14.8499 16.7578C14.7529 16.8635 14.6358 16.9477 14.506 17.0053C14.3761 17.0628 14.2362 17.0925 14.0948 17.0925C13.9534 17.0925 13.8135 17.0628 13.6836 17.0053C13.5538 16.9477 13.4367 16.8635 13.3396 16.7578C13.2425 16.6521 13.1675 16.5271 13.119 16.3906C13.0706 16.254 13.0497 16.1087 13.0578 15.9636C13.073 15.6914 13.1889 15.4355 13.3817 15.2483C13.5745 15.0611 13.8296 14.9569 14.0948 14.9569C14.36 14.9569 14.6151 15.0611 14.8079 15.2483C15.0007 15.4355 15.1166 15.6914 15.1317 15.9636Z" fill="white"/>
</svg>
