<svg width="26" height="32" viewBox="0 0 26 32" fill="none" xmlns="http://www.w3.org/2000/svg">
<path d="M13 11.5C13.6894 11.5 14.3721 11.3642 15.0091 11.1004C15.646 10.8365 16.2248 10.4498 16.7123 9.96231C17.1998 9.4748 17.5865 8.89605 17.8504 8.25909C18.1142 7.62213 18.25 6.93944 18.25 6.25C18.25 4.85761 17.6969 3.52226 16.7123 2.53769C15.7277 1.55312 14.3924 1 13 1C11.6076 1 10.2723 1.55312 9.28769 2.53769C8.30312 3.52226 7.75 4.85761 7.75 6.25C7.75 6.93944 7.88579 7.62213 8.14963 8.25909C8.41347 8.89605 8.80018 9.4748 9.28769 9.96231C9.7752 10.4498 10.354 10.8365 10.9909 11.1004C11.6279 11.3642 12.3106 11.5 13 11.5ZM13 11.5V22M10 26.5H16M21.6145 31H4.3855C4.027 31 3.8485 31 3.6985 30.985C3.01021 30.9155 2.3671 30.6102 1.87807 30.1209C1.38904 29.6316 1.08414 28.9883 1.015 28.3C1 28.15 1 27.97 1 27.613C1 27.3955 1 27.286 1.0045 27.181C1.04959 26.2151 1.40462 25.2894 2.017 24.541C2.1094 24.4307 2.20442 24.3227 2.302 24.217L4.318 21.9775C5.638 20.5105 6.298 19.777 7.174 19.387C8.047 19 9.034 19 11.008 19H14.992C16.966 19 17.953 19 18.826 19.39C19.7005 19.7785 20.3605 20.512 21.682 21.979L23.6965 24.2185C23.842 24.3805 23.9155 24.4615 23.9815 24.544C24.5941 25.2918 24.9497 26.2169 24.9955 27.1825C25 27.2875 25 27.397 25 27.6145C25 27.973 25 28.1515 24.985 28.3015C24.9155 28.9898 24.6102 29.6329 24.1209 30.1219C23.6316 30.611 22.9883 30.9159 22.3 30.985C22.15 31 21.9715 31 21.6145 31Z" stroke="white" stroke-width="1.5" stroke-linecap="round" stroke-linejoin="round"/>
</svg>
