<svg width="26" height="22" viewBox="0 0 26 22" fill="none" xmlns="http://www.w3.org/2000/svg">
<path d="M25.5 3.35144C24.5801 3.75559 23.5916 4.02874 22.5541 4.15162C23.6132 3.5227 24.4264 2.52678 24.8093 1.34015C23.8025 1.93209 22.701 2.34916 21.5523 2.57332C20.6167 1.58572 19.2838 0.968506 17.8085 0.968506C14.9759 0.968506 12.6793 3.24384 12.6793 6.05018C12.6793 6.44853 12.7247 6.83634 12.8121 7.20837C8.54941 6.99637 4.77012 4.97328 2.24033 1.89873C1.79893 2.64927 1.546 3.52231 1.546 4.4535C1.546 6.21661 2.45156 7.77198 3.82773 8.68333C3.01323 8.65806 2.21665 8.44009 1.50449 8.04764C1.5042 8.06892 1.5042 8.09021 1.5042 8.11159C1.5042 10.5738 3.27217 12.6277 5.61846 13.0946C4.86317 13.2981 4.07093 13.3279 3.30225 13.1817C3.95488 15.2006 5.84912 16.6698 8.09346 16.7109C6.33809 18.0738 4.12646 18.8863 1.72354 18.8863C1.30947 18.8863 0.90127 18.8622 0.5 18.8152C2.76982 20.2571 5.46582 21.0984 8.3623 21.0984C17.7966 21.0984 22.9555 13.3549 22.9555 6.63953C22.9555 6.41912 22.9506 6.19997 22.9406 5.98207C23.9448 5.26286 24.8114 4.37205 25.5 3.35144Z" fill="white"/>
</svg>

