<svg width="22" height="37" viewBox="0 0 22 37" fill="none" xmlns="http://www.w3.org/2000/svg">
<path d="M12.6719 1.27051C13.0104 1.35042 13.25 1.65217 13.25 2V13.25H20C20.2598 13.25 20.501 13.3845 20.6377 13.6055C20.7743 13.8265 20.7869 14.1026 20.6709 14.335L10.1709 35.335C10.0154 35.646 9.66655 35.8092 9.32812 35.7295C8.9896 35.6496 8.75 35.3478 8.75 35V23.75H2C1.74018 23.75 1.49899 23.6155 1.3623 23.3945C1.22573 23.1735 1.21307 22.8974 1.3291 22.665L11.8291 1.66504L11.8965 1.55469C12.0721 1.31643 12.3759 1.20078 12.6719 1.27051Z" stroke="white" stroke-width="1.5" stroke-linejoin="round"/>
</svg>
